<?xml version="1.0" standalone="no"?>
<!DOCTYPE svg PUBLIC "-//W3C//DTD SVG 20010904//EN"
 "http://www.w3.org/TR/2001/REC-SVG-20010904/DTD/svg10.dtd">
<svg version="1.0" xmlns="http://www.w3.org/2000/svg"
 width="513.000000pt" height="513.000000pt" viewBox="0 0 513.000000 513.000000"
 preserveAspectRatio="xMidYMid meet">
<metadata>
Created by potrace 1.14, written by Peter Selinger 2001-2017
</metadata>
<g transform="translate(0.000000,513.000000) scale(0.100000,-0.100000)"
fill="#000000" stroke="none">
<path d="M2463 4896 c-82 -20 -162 -65 -224 -126 -47 -47 -97 -120 -105 -152
-1 -5 -3 -10 -4 -13 -1 -3 -4 -9 -5 -15 -1 -5 -3 -11 -5 -12 -3 -5 -9 -40 -16
-88 -3 -24 -7 -47 -10 -49 -2 -2 1 -10 7 -18 9 -9 8 -13 0 -13 -9 0 -9 -5 -1
-21 7 -11 9 -23 6 -26 -3 -4 -1 -12 4 -19 6 -6 10 -16 9 -20 -7 -31 61 -152
119 -210 64 -64 176 -123 253 -133 5 -1 5 -405 1 -421 -1 -3 -280 -5 -619 -5
-340 0 -642 -3 -671 -7 -123 -19 -239 -117 -273 -230 -18 -60 -19 -72 -20
-305 -1 -169 -4 -233 -12 -234 -7 0 -86 -2 -177 -3 -176 -3 -228 -12 -293 -53
-87 -55 -153 -153 -161 -241 -3 -23 -7 -46 -11 -52 -3 -5 -1 -10 5 -10 6 0 8
-4 5 -10 -9 -14 -10 -204 -1 -218 4 -7 3 -12 -2 -12 -8 0 -7 -68 2 -77 3 -3 1
-15 -4 -27 -4 -13 -4 -29 1 -39 6 -9 6 -17 1 -17 -10 0 -6 -65 4 -82 4 -6 3
-9 -2 -5 -10 6 -10 -86 1 -102 3 -6 3 -11 -2 -11 -4 0 -8 -27 -8 -60 0 -33 4
-60 8 -60 5 0 6 -4 2 -9 -8 -15 -10 -175 -2 -189 5 -6 4 -12 0 -12 -10 0 -10
-41 0 -56 3 -5 2 -16 -3 -24 -4 -7 -4 -24 1 -37 5 -13 5 -23 0 -23 -5 0 -3
-20 4 -44 8 -24 11 -47 8 -50 -4 -3 2 -15 12 -26 10 -11 14 -20 10 -20 -4 0 0
-9 10 -20 10 -11 15 -20 11 -20 -22 0 88 -95 138 -120 77 -37 86 -38 288 -39
l167 -1 1 -228 c0 -125 2 -238 4 -252 8 -55 19 -90 29 -90 6 0 7 -3 4 -6 -17
-17 90 -131 153 -163 71 -37 129 -40 845 -40 698 0 755 3 755 34 0 24 29 36
91 36 96 1 99 0 106 -18 19 -51 18 -51 328 -51 280 0 291 1 313 21 12 11 22
26 22 34 0 12 21 15 115 15 67 0 77 -2 72 -16 -3 -7 4 -22 16 -32 32 -28 171
-25 249 5 110 42 203 164 214 279 9 96 9 172 -1 172 -7 0 -7 3 0 8 6 4 10 56
10 120 0 68 -4 112 -10 112 -7 0 -7 3 0 8 6 4 10 16 10 27 0 19 8 20 190 25
190 6 190 6 250 38 33 17 72 42 87 55 27 25 76 97 80 119 2 7 6 15 10 18 10 8
20 74 22 149 1 67 -18 111 -50 111 -15 0 -16 3 -17 48 -1 15 -6 30 -12 34 -7
5 -7 8 1 8 6 0 10 20 9 50 -1 41 2 50 15 50 9 0 25 9 35 20 18 20 19 44 18
403 0 285 -4 390 -13 412 -7 17 -14 36 -16 43 -1 8 -10 22 -18 31 -9 10 -16
22 -16 27 0 14 -69 77 -112 103 -64 38 -98 44 -283 46 l-180 2 0 34 c0 19 -4
37 -10 41 -7 5 -7 8 0 8 6 0 10 34 10 82 0 46 -4 86 -10 90 -7 5 -7 8 0 8 11
0 11 146 0 221 -19 131 -134 254 -265 285 -19 4 -323 9 -675 10 -352 1 -642 2
-645 3 -3 0 -5 94 -5 208 l1 208 54 17 c30 10 75 28 100 40 49 25 183 155 174
169 -3 5 0 9 6 9 6 0 8 5 5 10 -3 6 -2 10 2 10 24 0 74 232 53 245 -4 3 -6 18
-4 35 2 16 0 30 -5 30 -5 0 -7 9 -4 20 3 12 0 20 -6 20 -7 0 -9 5 -6 10 4 6 1
17 -5 25 -7 8 -9 15 -5 15 5 0 2 8 -6 18 -8 9 -21 29 -29 45 -7 15 -17 27 -22
27 -4 0 -8 6 -9 13 -1 25 -119 112 -191 141 -84 33 -190 42 -275 22z"/>
</g>
</svg>
